<svg width="32" height="31" viewBox="0 0 32 31" fill="none" xmlns="http://www.w3.org/2000/svg">
<path d="M24.0412 5.6001C23.0412 5.6001 22.2412 6.3999 22.2412 7.3999C22.2412 8.3999 23.0412 9.2002 24.0412 9.2002C25.0412 9.2002 25.8412 8.3999 25.8412 7.3999C25.8412 6.3999 25.0412 5.6001 24.0412 5.6001Z" fill="#E0EAF5"/>
<path d="M16.2413 7.8999C12.1413 7.8999 8.84131 11.1998 8.84131 15.2998C8.84131 19.3998 12.1413 22.7002 16.2413 22.7002C20.3413 22.7002 23.6413 19.3998 23.6413 15.2998C23.6413 11.1998 20.3413 7.8999 16.2413 7.8999ZM16.2413 20.1001C13.6413 20.1001 11.4413 17.9998 11.4413 15.2998C11.4413 12.5998 13.5413 10.5 16.2413 10.5C18.9413 10.5 21.0413 12.5998 21.0413 15.2998C21.0413 17.9998 18.8413 20.1001 16.2413 20.1001Z" fill="#E0EAF5"/>
<path d="M22.1414 30.5H10.0414C5.04141 30.5 0.941406 26.3999 0.941406 21.3999V9.2998C0.941406 4.2998 5.04141 0.200195 10.0414 0.200195H22.1414C27.1414 0.200195 31.2414 4.2998 31.2414 9.2998V21.3999C31.1414 26.3999 27.1414 30.5 22.1414 30.5ZM10.0414 3.1001C6.64141 3.1001 3.84143 5.8998 3.84143 9.2998V21.3999C3.84143 24.7999 6.64141 27.6001 10.0414 27.6001H22.1414C25.5414 27.6001 28.3414 24.7999 28.3414 21.3999V9.2998C28.3414 5.8998 25.5414 3.1001 22.1414 3.1001H10.0414Z" fill="#E0EAF5"/>
</svg>
