<svg xmlns="http://www.w3.org/2000/svg" width="16" height="16" viewBox="0 0 16 16" fill="none">
<path fill-rule="evenodd" clip-rule="evenodd" d="M4.95118 14V5.22849H2.16473V13.9999H4.95118V14ZM3.55825 4.03133C4.52964 4.03133 5.13474 3.35721 5.13474 2.5155C5.11637 1.65508 4.52964 1 3.57646 1C2.62314 1.00003 2 1.65511 2 2.51553C2 3.35724 2.60477 4.03135 3.53991 4.03135L3.55825 4.03133ZM6.49338 14C6.49338 14 6.52994 6.05149 6.49338 5.22851H9.28027V6.50057H9.26177C9.62822 5.90199 10.2884 5.02254 11.7916 5.02254C13.6254 5.02254 15 6.2762 15 8.97047V14H12.2136V9.3075C12.2136 8.12841 11.8104 7.32383 10.8017 7.32383C10.032 7.32383 9.57334 7.86625 9.37191 8.39058C9.2982 8.5772 9.28027 8.83934 9.28027 9.1015V14H6.49338Z" fill="#E0EAF5"/>
</svg>