<svg width="160" height="29" viewBox="0 0 160 29" fill="none" xmlns="http://www.w3.org/2000/svg">
<path d="M66.2999 15.5999H56.3999V1.8999H59.8999V12.4999H66.2999V15.5999Z" fill="#E0EAF5"/>
<path d="M71.7001 1.8999H68.1001V15.5999H71.7001V1.8999Z" fill="#E0EAF5"/>
<path d="M74.2002 1.8999H79.4002L81.9002 11.3999L84.4002 1.8999H89.5002V15.5999H86.1002L86.3002 5.1999L83.2002 15.5999H80.5002L77.4002 5.1999L77.5002 15.5999H74.2002V1.8999Z" fill="#E0EAF5"/>
<path d="M95.6 1.8999H92V15.5999H95.6V1.8999Z" fill="#E0EAF5"/>
<path d="M108.9 4.9999H104.8V15.5999H101.2V4.9999H97.1001V1.8999H108.9V4.9999Z" fill="#E0EAF5"/>
<path d="M120.4 15.5999H110.5V1.8999H114.1V12.4999H120.4V15.5999Z" fill="#E0EAF5"/>
<path d="M133.2 4.7999H125.8V7.1999H132.5V9.8999H125.8V12.5999H133.3V15.5999H122.2V1.8999H133.2V4.7999Z" fill="#E0EAF5"/>
<path d="M142.5 6.0001C142.4 4.9001 141.7 4.3001 140.3 4.3001C139.7 4.3001 139.3 4.4001 139 4.6001C138.7 4.8001 138.5 5.1001 138.5 5.5001C138.5 5.8001 138.6 6.0001 138.7 6.2001C138.8 6.4001 139.1 6.5001 139.5 6.6001C141.9 7.2001 143.5 7.7001 144.3 8.1001C145.7 8.8001 146.4 9.9001 146.4 11.4001C146.4 12.8001 145.9 13.9001 144.8 14.7001C143.7 15.5001 142.3 15.9001 140.5 15.9001C138.6 15.9001 137.1 15.5001 136 14.6001C134.9 13.7001 134.4 12.5001 134.3 11.0001H137.9C137.9 12.4001 138.8 13.2001 140.6 13.2001C142 13.2001 142.6 12.7001 142.6 11.8001C142.6 11.4001 142.5 11.1001 142.2 10.9001C141.9 10.7001 141.5 10.5001 140.8 10.3001C139.5 9.9001 138.4 9.6001 137.4 9.2001C135.6 8.6001 134.7 7.4001 134.7 5.8001C134.7 4.5001 135.2 3.5001 136.2 2.7001C137.2 1.9001 138.5 1.6001 140.2 1.6001C141.9 1.6001 143.2 2.0001 144.2 2.7001C145.1 3.5001 145.6 4.5001 145.6 6.0001H142.5Z" fill="#E0EAF5"/>
<path d="M155.3 6.0001C155.2 4.9001 154.5 4.3001 153.1 4.3001C152.5 4.3001 152.1 4.4001 151.8 4.6001C151.5 4.8001 151.3 5.1001 151.3 5.5001C151.3 5.8001 151.4 6.0001 151.5 6.2001C151.6 6.4001 151.9 6.5001 152.3 6.6001C154.7 7.2001 156.3 7.7001 157.1 8.1001C158.5 8.8001 159.2 9.9001 159.2 11.4001C159.2 12.8001 158.7 13.9001 157.6 14.7001C156.5 15.5001 155.1 15.9001 153.3 15.9001C151.4 15.9001 149.9 15.5001 148.8 14.6001C147.7 13.7001 147.2 12.5001 147.1 11.0001H150.7C150.7 12.4001 151.6 13.2001 153.4 13.2001C154.8 13.2001 155.4 12.7001 155.4 11.8001C155.4 11.4001 155.3 11.1001 155 10.9001C154.7 10.7001 154.3 10.5001 153.6 10.3001C152.3 9.9001 151.2 9.6001 150.2 9.2001C148.4 8.6001 147.5 7.4001 147.5 5.8001C147.5 4.5001 148 3.5001 149 2.7001C150 1.9001 151.3 1.6001 153 1.6001C154.7 1.6001 156 2.0001 157 2.7001C157.9 3.5001 158.4 4.5001 158.4 6.0001H155.3Z" fill="#E0EAF5"/>
<path d="M56.3377 24.6514V17.7895H57.5871L59.7494 23.5558L61.9214 17.7895H63.1708V24.6514H62.3058V18.9427H62.2866L60.1434 24.6514H59.365L57.2219 18.9427H57.2026V24.6514H56.3377ZM67.3649 24.6514V17.7895H72.1029V18.5583H68.2779V20.7399H71.8434V21.5087H68.2779V23.8825H72.1317V24.6514H67.3649ZM75.9149 24.6514V17.7895H78.2695C80.3838 17.7895 81.5659 18.8466 81.5659 21.057C81.5659 23.3539 80.5567 24.6514 78.2695 24.6514H75.9149ZM76.8279 18.5583V23.8825H78.3463C78.971 23.8825 80.6529 23.7095 80.6529 21.182C80.6529 19.5482 80.0474 18.5583 78.3656 18.5583H76.8279ZM85.3949 24.6514V17.7895H86.3079V24.6514H85.3949ZM89.7014 24.6514L92.3828 17.7895H93.3919L96.0732 24.6514H95.0641L94.3145 22.5851H91.4121L90.6433 24.6514H89.7014ZM92.8633 18.616L91.7004 21.8163H94.0262L92.8825 18.616H92.8633Z" fill="#E0EAF5"/>
<path d="M29 10C31.9 10.1 34 12.8 33.3 15.6C32.6 18.4 31.3 20.9 29.4 23C26.4 26.4 22.3 28.1 17.2 28.1C12 28.1 7.79998 26.4 4.69998 23.1C1.59998 19.8 0 15.4 0 10.1C0 9.30003 6.10203e-06 8.60003 0.100006 7.90003C0.400006 5.10003 3.09999 3.20003 5.89999 4.00003H5.99997C8.09997 4.60003 9.40002 6.50003 9.30002 8.70003C9.30002 9.10003 9.30002 9.60003 9.30002 10C9.30002 13.3 9.99999 16 11.4 17.9C12.8 19.8 14.7 20.7 17.2 20.7C19.6 20.7 21.5 19.8 22.9 17.9C23.7 16.8 24.3 15.4 24.6 13.7C24.8 11.5 26.7 10 29 10Z" fill="#E0EAF5"/>
<path d="M16.4999 18.1C13.5999 18 11.4999 15.3 12.1999 12.5C12.8999 9.7 14.1999 7.2 16.0999 5.1C19.0999 1.7 23.1999 0 28.2999 0C33.4999 0 37.6999 1.7 40.7999 5C43.8999 8.3 45.4999 12.7 45.4999 18C45.4999 18.8 45.4999 19.5 45.3999 20.2C45.0999 23 42.3999 24.9 39.5999 24.1H39.4999C37.3999 23.5 36.0999 21.6 36.1999 19.4C36.1999 19 36.1999 18.5 36.1999 18.1C36.1999 14.8 35.4999 12.1 34.0999 10.2C32.6999 8.3 30.7999 7.4 28.2999 7.4C25.8999 7.4 23.9999 8.3 22.5999 10.2C21.7999 11.3 21.1999 12.7 20.8999 14.4C20.6999 16.6 18.7999 18.1 16.4999 18.1Z" fill="#E0EAF5"/>
</svg>
