<svg width="29" height="25" viewBox="0 0 29 25" fill="none" xmlns="http://www.w3.org/2000/svg">
<path d="M28.0414 3.60024C27.1414 4.00024 26.1414 4.20004 25.2414 4.40004C25.7414 4.30004 26.3414 3.50034 26.6414 3.20034C27.0414 2.70034 27.4414 2.10014 27.5414 1.50014V1.40004C27.4414 1.40004 27.4414 1.40004 27.3414 1.40004C26.2414 2.00004 25.1414 2.40034 23.9414 2.70034C23.8414 2.70034 23.7414 2.70024 23.7414 2.60024C23.6414 2.50024 23.5414 2.39995 23.4414 2.29995C22.9414 1.89995 22.4414 1.49995 21.8414 1.29995C21.0414 0.999947 20.1414 0.800045 19.3414 0.900045C18.5414 1.00004 17.7414 1.20024 16.9414 1.60024C16.2414 2.00024 15.5414 2.50034 15.0414 3.20034C14.5414 3.90034 14.1414 4.70014 13.9414 5.50014C13.7414 6.30014 13.7414 7.10004 13.8414 7.90004C13.8414 8.00004 13.8414 8.10014 13.7414 8.00014C9.14143 7.30014 5.24143 5.70024 2.14143 2.10024C2.04143 1.90024 1.94142 1.90024 1.84142 2.10024C0.441423 4.10024 1.14142 7.40014 2.84142 9.00014C3.04142 9.20014 3.34142 9.40024 3.54142 9.60024C3.44142 9.60024 2.34142 9.50014 1.34142 9.00014C1.24142 8.90014 1.14143 9.00024 1.14143 9.10024C1.14143 9.30024 1.14143 9.49995 1.14143 9.79995C1.44143 11.8999 2.84142 13.8001 4.84142 14.5001C5.04142 14.6001 5.34142 14.7003 5.54142 14.7003C5.14142 14.8003 4.64142 14.8999 3.34142 14.7999C3.14142 14.7999 3.14143 14.8001 3.14143 15.0001C4.14143 17.6001 6.14143 18.4 7.74143 18.9C7.94143 18.9 8.14142 18.9001 8.34142 19.0001C7.84142 19.8001 6.04143 20.4003 5.24143 20.7003C3.74143 21.2003 2.04143 21.4999 0.441429 21.2999C0.141429 21.2999 0.14142 21.2999 0.0414201 21.2999C-0.0585799 21.2999 0.0414262 21.4001 0.141426 21.5001C0.441426 21.7001 0.841426 21.9002 1.14143 22.1002C2.14143 22.6002 3.24142 23.1 4.34142 23.4C10.0414 25 16.5414 23.8001 20.8414 19.5001C24.2414 16.1001 25.4414 11.5 25.4414 6.90004C25.4414 6.70004 25.6414 6.60014 25.7414 6.50014C26.6414 5.80014 27.3414 5.00034 27.9414 4.20034C28.0414 4.00034 28.0414 3.79995 28.0414 3.79995C28.1414 3.49995 28.1414 3.50024 28.0414 3.60024Z" fill="#E0EAF5"/>
</svg>
