<svg width="31" height="30" viewBox="0 0 31 30" fill="none" xmlns="http://www.w3.org/2000/svg">
<path d="M0.341309 30L2.54129 22C1.34129 19.8 0.641296 17.2998 0.641296 14.7998C0.641296 6.5998 7.24128 0 15.4413 0C23.6413 0 30.2413 6.5998 30.2413 14.7998C30.2413 22.9998 23.6413 29.6001 15.4413 29.6001C12.9413 29.6001 10.5413 28.9998 8.44128 27.7998L0.341309 30ZM8.84131 24.7998L9.34131 25.1001C11.2413 26.2001 13.3413 26.7998 15.4413 26.7998C22.0413 26.7998 27.4413 21.3998 27.4413 14.7998C27.4413 8.1998 22.0413 2.7998 15.4413 2.7998C8.84128 2.7998 3.44128 8.1998 3.44128 14.7998C3.44128 16.9998 4.0413 19.1 5.2413 21L5.54129 21.5L4.34131 26L8.84131 24.7998Z" fill="#E0EAF5"/>
<path fill-rule="evenodd" clip-rule="evenodd" d="M21.0414 16.8999C20.4414 16.4999 19.6414 16.0999 18.9414 16.3999C18.3414 16.5999 18.0414 17.4999 17.6414 17.8999C17.4414 18.0999 17.2414 18.2 16.9414 18C14.8414 17.2 13.2414 15.7999 12.1414 13.8999C11.9414 13.5999 11.9414 13.4001 12.2414 13.1001C12.5414 12.7001 13.0414 12.2002 13.1414 11.7002C13.2414 11.2002 12.9414 10.5 12.7414 9.99996C12.4414 9.39996 12.1414 8.50006 11.5414 8.10006C10.9414 7.80006 10.2414 7.99987 9.74142 8.39987C8.84142 9.09987 8.44141 10.1999 8.44141 11.3999C8.44141 11.6999 8.44141 11.9998 8.54141 12.2998C8.74141 12.9998 9.04141 13.6999 9.44141 14.3999C9.74141 14.8999 10.0414 15.3998 10.3414 15.7998C11.4414 17.2998 12.8414 18.6001 14.4414 19.6001C15.2414 20.1001 16.1414 20.4998 16.9414 20.7998C17.9414 21.0998 18.8414 21.4998 19.9414 21.2998C21.0414 21.0998 22.1414 20.3998 22.6414 19.2998C22.7414 18.9998 22.8414 18.5998 22.7414 18.2998C22.5414 17.5998 21.5414 17.1999 21.0414 16.8999Z" fill="#E0EAF5"/>
</svg>
