<svg width="51" height="51" viewBox="0 0 51 51" fill="none" xmlns="http://www.w3.org/2000/svg">
<path opacity="0.1" d="M25.2 49.3999C38.5653 49.3999 49.4 38.5652 49.4 25.2C49.4 11.8347 38.5653 1 25.2 1C11.8347 1 1 11.8347 1 25.2C1 38.5652 11.8347 49.3999 25.2 49.3999Z" stroke="#E0EAF5" stroke-width="2" stroke-miterlimit="10" stroke-linecap="round" stroke-linejoin="round"/>
<path d="M25.2 49.3999C38.5653 49.3999 49.4 38.5652 49.4 25.2C49.4 11.8347 38.5653 1 25.2 1C11.8347 1 1 11.8347 1 25.2C1 38.5652 11.8347 49.3999 25.2 49.3999Z" stroke="#E0EAF5" stroke-width="2" stroke-miterlimit="10" stroke-linecap="round" stroke-linejoin="round"/>
<path d="M29.6 33.6L25.2001 29.3999L20.8 25.2L25.2001 21L29.6 16.7999" stroke="#E0EAF5" stroke-width="2" stroke-miterlimit="10" stroke-linecap="round" stroke-linejoin="round"/>
</svg>
