<svg width="46" height="29" viewBox="0 0 46 29" fill="none" xmlns="http://www.w3.org/2000/svg">
<path d="M29 10C31.9 10.1 34 12.8 33.3 15.6C32.6 18.4 31.3 20.9 29.4 23C26.4 26.4 22.3 28.1 17.2 28.1C12 28.1 7.79998 26.4 4.69998 23.1C1.59998 19.8 0 15.4 0 10.1C0 9.30003 6.10203e-06 8.60003 0.100006 7.90003C0.400006 5.10003 3.09999 3.20003 5.89999 4.00003H5.99997C8.09997 4.60003 9.40002 6.50003 9.30002 8.70003C9.30002 9.10003 9.30002 9.60003 9.30002 10C9.30002 13.3 9.99999 16 11.4 17.9C12.8 19.8 14.7 20.7 17.2 20.7C19.6 20.7 21.5 19.8 22.9 17.9C23.7 16.8 24.3 15.4 24.6 13.7C24.8 11.5 26.7 10 29 10Z" fill="#E0EAF5"/>
<path d="M16.4999 18.1C13.5999 18 11.4999 15.3 12.1999 12.5C12.8999 9.7 14.1999 7.2 16.0999 5.1C19.0999 1.7 23.1999 0 28.2999 0C33.4999 0 37.6999 1.7 40.7999 5C43.8999 8.3 45.4999 12.7 45.4999 18C45.4999 18.8 45.4999 19.5 45.3999 20.2C45.0999 23 42.3999 24.9 39.5999 24.1H39.4999C37.3999 23.5 36.0999 21.6 36.1999 19.4C36.1999 19 36.1999 18.5 36.1999 18.1C36.1999 14.8 35.4999 12.1 34.0999 10.2C32.6999 8.3 30.7999 7.4 28.2999 7.4C25.8999 7.4 23.9999 8.3 22.5999 10.2C21.7999 11.3 21.1999 12.7 20.8999 14.4C20.6999 16.6 18.7999 18.1 16.4999 18.1Z" fill="#E0EAF5"/>
</svg>
